<?xml version="1.0" encoding="UTF-8" standalone="no"?>
<!DOCTYPE svg PUBLIC "-//W3C//DTD SVG 1.1//EN"
 "http://www.w3.org/Graphics/SVG/1.1/DTD/svg11.dtd">
<!-- Generated by graphviz version 2.47.0 (20210316.0004)
 -->
<!-- Title: dependencies Pages: 1 -->
<svg width="504pt" height="284pt"
 viewBox="0.00 0.00 504.00 284.00" xmlns="http://www.w3.org/2000/svg" xmlns:xlink="http://www.w3.org/1999/xlink">
<g id="graph0" class="graph" transform="scale(1 1) rotate(0) translate(4 280)">
<title>dependencies</title>
<polygon fill="white" stroke="transparent" points="-4,4 -4,-280 500,-280 500,4 -4,4"/>
<text text-anchor="start" x="227.01" y="-42.4" font-family="sans-serif" font-weight="bold" font-size="14.00">Legend</text>
<polygon fill="#ffffb3" stroke="transparent" points="14,-10 14,-30 34,-30 34,-10 14,-10"/>
<text text-anchor="start" x="37.63" y="-15.4" font-family="sans-serif" font-size="14.00"> &#160;Declarations</text>
<polygon fill="#8dd3c7" stroke="transparent" points="127,-10 127,-30 147,-30 147,-10 127,-10"/>
<text text-anchor="start" x="150.73" y="-15.4" font-family="sans-serif" font-size="14.00"> &#160;Module</text>
<polygon fill="#80b1d3" stroke="transparent" points="213,-10 213,-30 233,-30 233,-10 213,-10"/>
<text text-anchor="start" x="236.78" y="-15.4" font-family="sans-serif" font-size="14.00"> &#160;Bootstrap</text>
<polygon fill="#fdb462" stroke="transparent" points="310,-10 310,-30 330,-30 330,-10 310,-10"/>
<text text-anchor="start" x="333.67" y="-15.4" font-family="sans-serif" font-size="14.00"> &#160;Providers</text>
<polygon fill="#fb8072" stroke="transparent" points="406,-10 406,-30 426,-30 426,-10 406,-10"/>
<text text-anchor="start" x="429.73" y="-15.4" font-family="sans-serif" font-size="14.00"> &#160;Exports</text>
<g id="clust1" class="cluster">
<title>cluster_AuthModule</title>
<polygon fill="none" stroke="black" stroke-dasharray="1,5" points="127,-70 127,-268 369,-268 369,-70 127,-70"/>
</g>
<g id="clust6" class="cluster">
<title>cluster_AuthModule_bootstrap</title>
<polygon fill="none" stroke="black" points="135,-208 135,-260 361,-260 361,-208 135,-208"/>
</g>
<g id="clust2" class="cluster">
<title>cluster_AuthModule_declarations</title>
<polygon fill="none" stroke="black" points="137,-78 137,-130 359,-130 359,-78 137,-78"/>
</g>
<!-- AccountAccessButtonComponent -->
<g id="node1" class="node">
<title>AccountAccessButtonComponent</title>
<polygon fill="#ffffb3" stroke="black" points="351.02,-122 144.98,-122 144.98,-86 351.02,-86 351.02,-122"/>
<text text-anchor="middle" x="248" y="-99.8" font-family="Times,serif" font-size="14.00">AccountAccessButtonComponent</text>
</g>
<!-- AuthModule -->
<g id="node2" class="node">
<title>AuthModule</title>
<polygon fill="#8dd3c7" stroke="black" points="291.55,-187 288.55,-191 267.55,-191 264.55,-187 204.45,-187 204.45,-151 291.55,-151 291.55,-187"/>
<text text-anchor="middle" x="248" y="-164.8" font-family="Times,serif" font-size="14.00">AuthModule</text>
</g>
<!-- AccountAccessButtonComponent&#45;&gt;AuthModule -->
<g id="edge1" class="edge">
<title>AccountAccessButtonComponent&#45;&gt;AuthModule</title>
<path fill="none" stroke="black" d="M248,-122.11C248,-122.11 248,-140.99 248,-140.99"/>
<polygon fill="black" stroke="black" points="244.5,-140.99 248,-150.99 251.5,-140.99 244.5,-140.99"/>
</g>
<!-- AccountAccessButtonComponent  -->
<g id="node3" class="node">
<title>AccountAccessButtonComponent </title>
<polygon fill="#fb8072" stroke="black" points="353.02,-252 142.98,-252 142.98,-216 353.02,-216 353.02,-252"/>
<text text-anchor="middle" x="248" y="-229.8" font-family="Times,serif" font-size="14.00">AccountAccessButtonComponent </text>
</g>
<!-- AuthModule&#45;&gt;AccountAccessButtonComponent  -->
<g id="edge2" class="edge">
<title>AuthModule&#45;&gt;AccountAccessButtonComponent </title>
<path fill="none" stroke="black" stroke-dasharray="5,2" d="M233.41,-187.11C233.41,-187.11 233.41,-205.99 233.41,-205.99"/>
<polygon fill="black" stroke="black" points="229.91,-205.99 233.41,-215.99 236.91,-205.99 229.91,-205.99"/>
</g>
<!-- AuthModule&#45;&gt;AccountAccessButtonComponent  -->
<g id="edge3" class="edge">
<title>AuthModule&#45;&gt;AccountAccessButtonComponent </title>
<path fill="none" stroke="black" stroke-dasharray="1,5" d="M262.59,-187.11C262.59,-187.11 262.59,-205.99 262.59,-205.99"/>
<polygon fill="black" stroke="black" points="259.09,-205.99 262.59,-215.99 266.09,-205.99 259.09,-205.99"/>
</g>
</g>
</svg>
